<svg id="Layer_1" data-name="Layer 1" xmlns="http://www.w3.org/2000/svg" viewBox="0 0 10.72 10.25"><defs><style>.cls-1{fill:none;stroke:#000;stroke-miterlimit:10;stroke-width:0.25px;}</style></defs><title>reset</title><path class="cls-1" d="M20.44,23" transform="translate(-19.64 -19.88)"/><path d="M20.73,22.85a.12.12,0,0,1,.06.15l.85.4-.1-2-1.9,1.07.93.43A.14.14,0,0,1,20.73,22.85Z" transform="translate(-19.64 -19.88)"/><path d="M25.23,19.88a.12.12,0,0,0-.12.12.13.13,0,0,0,.12.13A4.88,4.88,0,1,1,20.36,25a4.71,4.71,0,0,1,.43-2v0l-.22-.1s0,0,0,0A5,5,0,0,0,20.11,25a5.13,5.13,0,1,0,5.12-5.12Z" transform="translate(-19.64 -19.88)"/></svg>